<svg width="41" height="41" viewBox="0 0 41 41" fill="currentColor" xmlns="http://www.w3.org/2000/svg">
<path fill-rule="evenodd" clip-rule="evenodd" d="M20.4999 2.58301C10.6049 2.58301 2.58325 10.6047 2.58325 20.4997C2.58325 23.593 3.36825 26.508 4.74992 29.0497L3.43825 36.1047C3.40134 36.304 3.41348 36.5094 3.47363 36.703C3.53377 36.8966 3.64011 37.0727 3.78348 37.2161C3.92685 37.3595 4.10294 37.4658 4.29657 37.526C4.4902 37.5861 4.69555 37.5982 4.89492 37.5613L11.9499 36.248C14.5734 37.6753 17.5133 38.4209 20.4999 38.4163C30.3949 38.4163 38.4166 30.3947 38.4166 20.4997C38.4166 10.6047 30.3949 2.58301 20.4999 2.58301ZM28.8333 18.4163C28.2807 18.4163 27.7508 18.6358 27.3601 19.0265C26.9694 19.4172 26.7499 19.9471 26.7499 20.4997C26.7499 21.0522 26.9694 21.5821 27.3601 21.9728C27.7508 22.3635 28.2807 22.583 28.8333 22.583C29.3858 22.583 29.9157 22.3635 30.3064 21.9728C30.6971 21.5821 30.9166 21.0522 30.9166 20.4997C30.9166 19.9471 30.6971 19.4172 30.3064 19.0265C29.9157 18.6358 29.3858 18.4163 28.8333 18.4163ZM18.4166 20.4997C18.4166 19.9471 18.6361 19.4172 19.0268 19.0265C19.4175 18.6358 19.9474 18.4163 20.4999 18.4163C21.0525 18.4163 21.5824 18.6358 21.9731 19.0265C22.3638 19.4172 22.5833 19.9471 22.5833 20.4997C22.5833 21.0522 22.3638 21.5821 21.9731 21.9728C21.5824 22.3635 21.0525 22.583 20.4999 22.583C19.9474 22.583 19.4175 22.3635 19.0268 21.9728C18.6361 21.5821 18.4166 21.0522 18.4166 20.4997ZM12.1666 18.4163C11.6141 18.4163 11.0841 18.6358 10.6934 19.0265C10.3027 19.4172 10.0833 19.9471 10.0833 20.4997C10.0833 21.0522 10.3027 21.5821 10.6934 21.9728C11.0841 22.3635 11.6141 22.583 12.1666 22.583C12.7191 22.583 13.249 22.3635 13.6397 21.9728C14.0304 21.5821 14.2499 21.0522 14.2499 20.4997C14.2499 19.9471 14.0304 19.4172 13.6397 19.0265C13.249 18.6358 12.7191 18.4163 12.1666 18.4163Z" fill="currentColor"/>
</svg>
