<svg width="41" height="47" viewBox="0 0 41 47" fill="currentColor" xmlns="http://www.w3.org/2000/svg">
<path d="M22.8013 45.312L22.7781 45.3163L22.6287 45.3899L22.5866 45.3984L22.5571 45.3899L22.4076 45.3163C22.3852 45.3092 22.3683 45.3127 22.3571 45.3268L22.3487 45.3478L22.3129 46.2489L22.3234 46.291L22.3445 46.3183L22.5634 46.4741L22.595 46.4825L22.6202 46.4741L22.8392 46.3183L22.8645 46.2846L22.8729 46.2489L22.8371 45.3499C22.8315 45.3275 22.8195 45.3148 22.8013 45.312ZM23.3592 45.0742L23.3318 45.0784L22.9423 45.2741L22.9213 45.2952L22.915 45.3184L22.9529 46.2236L22.9634 46.2489L22.9802 46.2636L23.4034 46.4594C23.4301 46.4664 23.4504 46.4608 23.4644 46.4425L23.4729 46.4131L23.4013 45.1205C23.3943 45.0952 23.3802 45.0798 23.3592 45.0742ZM21.8539 45.0784C21.8447 45.0727 21.8336 45.0709 21.823 45.0733C21.8124 45.0756 21.8031 45.082 21.7971 45.091L21.7845 45.1205L21.7129 46.4131C21.7143 46.4383 21.7262 46.4552 21.7487 46.4636L21.7803 46.4594L22.2034 46.2636L22.2245 46.2468L22.2329 46.2236L22.2687 45.3184L22.2624 45.2931L22.2413 45.272L21.8539 45.0784Z" fill="currentColor]"/>
<path d="M11.0772 1.21196C12.6589 1.7457 14.1631 2.48613 15.5508 3.41401C17.5119 2.91207 19.5286 2.66025 21.5529 2.66456C23.6434 2.66456 25.6602 2.9256 27.5507 3.41191C28.9378 2.48492 30.4413 1.74521 32.0222 1.21196C33.4896 0.713021 35.5801 -0.0953824 36.8221 1.27932C37.6642 2.21404 37.8748 3.78032 38.0242 4.97608C38.1927 6.31079 38.2327 8.0497 37.7906 9.77598C39.4811 11.9591 40.5 14.5632 40.5 17.4011C40.5 21.6999 38.1716 25.4325 34.7253 28.0177C33.066 29.2449 31.2267 30.2078 29.2728 30.8723C29.7233 31.9039 29.9738 33.0449 29.9738 34.2428V40.5584C29.9738 41.1168 29.752 41.6523 29.3572 42.0471C28.9624 42.4419 28.4269 42.6637 27.8686 42.6637H15.2371C14.6788 42.6637 14.1433 42.4419 13.7485 42.0471C13.3537 41.6523 13.1319 41.1168 13.1319 40.5584V38.4722C11.1214 38.7185 9.43511 38.4995 8.00144 37.8911C6.50252 37.2554 5.45832 36.2701 4.67306 35.327C3.92781 34.4344 3.11519 32.4218 1.94047 32.0302C1.6781 31.9429 1.43551 31.8047 1.22655 31.6236C1.01759 31.4424 0.846351 31.222 0.722606 30.9747C0.472692 30.4752 0.431413 29.897 0.60785 29.3671C0.784287 28.8373 1.16399 28.3992 1.66342 28.1493C2.16285 27.8994 2.74111 27.8581 3.27098 28.0345C4.67306 28.5019 5.58674 29.5124 6.21199 30.325C7.22251 31.6302 8.04355 33.3355 9.64353 34.0154C10.3025 34.2954 11.2688 34.4786 12.7803 34.2723L13.1319 34.2007C13.1368 33.0551 13.3753 31.9226 13.833 30.8723C11.879 30.2078 10.0397 29.2449 8.38039 28.0177C4.93411 25.4325 2.60572 21.702 2.60572 17.4011C2.60572 14.5674 3.62255 11.9654 5.30885 9.7844C4.86675 8.05812 4.90464 6.315 5.07306 4.97819L5.08358 4.89819C5.23727 3.67295 5.41621 2.23088 6.27515 1.27932C7.51724 -0.0953824 9.60985 0.715126 11.0751 1.21406L11.0772 1.21196Z" fill="currentColor]"/>
</svg>
