<svg width="260" height="260" viewBox="0 0 260 260" fill="none" xmlns="http://www.w3.org/2000/svg">
<path d="M121.005 40.9922C121.925 37.692 126.298 36.9997 128.192 39.8545L134.766 49.7637L140.874 40.7529C142.796 37.9172 147.161 38.652 148.048 41.9609L149.573 47.6475L152.905 42.7314C154.827 39.8958 159.192 40.6306 160.08 43.9395L163.03 54.9414L170.048 48.6738C172.604 46.3917 176.658 48.1691 176.712 51.5947L176.974 68.166L180.918 65.3623C183.711 63.3773 187.544 65.5916 187.218 69.002L184.153 101.112C184.083 101.839 183.83 102.488 183.452 103.027C183.879 105.542 184.129 108.115 184.191 110.736C185.789 111.078 187.304 111.735 188.649 112.671C190.176 113.734 191.443 115.13 192.353 116.753C193.263 118.376 193.793 120.185 193.904 122.043C194.014 123.9 193.703 125.759 192.992 127.479C192.281 129.198 191.189 130.735 189.798 131.972C188.408 133.209 186.755 134.115 184.964 134.621C183.174 135.127 181.291 135.22 179.458 134.895C179.339 134.873 179.219 134.85 179.1 134.825C172.251 149.29 159.089 160.181 143.17 163.941V171.909C147.011 173.064 150.776 174.768 154.41 177.007C161.764 181.537 168.438 188.165 174.052 196.512C179.666 204.859 184.11 214.762 187.129 225.655C189.292 233.456 190.693 241.656 191.302 250.009C191.704 255.517 187.173 259.987 181.651 259.971L80.2036 259.671C74.6809 259.655 70.177 255.158 70.6108 249.652C71.269 241.303 72.7189 233.112 74.9272 225.324C78.0111 214.449 82.513 204.572 88.1763 196.258C93.8395 187.944 100.554 181.356 107.934 176.869C111.662 174.603 115.524 172.896 119.46 171.764V164.149C104.09 160.804 91.1936 150.833 83.9116 137.379C83.5476 137.479 83.1785 137.564 82.8052 137.631C80.9731 137.957 79.0909 137.863 77.3003 137.356C75.5095 136.85 73.8567 135.944 72.4663 134.707C71.0761 133.47 69.9841 131.934 69.2729 130.215C68.5618 128.495 68.2493 126.636 68.3599 124.778C68.4704 122.921 69.0015 121.112 69.9116 119.489C70.8218 117.866 72.0875 116.47 73.6147 115.406C74.8073 114.576 76.135 113.966 77.5347 113.6C77.5195 113.076 77.5122 112.55 77.5122 112.022C77.5122 111.99 77.5121 111.958 77.5122 111.926C76.9062 111.498 76.4061 110.89 76.104 110.114L66.354 85.083C65.2065 82.1368 67.7698 79.086 70.8696 79.709L73.2183 80.1807L69.0903 69.5801C67.9428 66.634 70.5054 63.5834 73.605 64.2061L74.7983 64.4453L72.5396 57.6064C71.465 54.3533 74.7103 51.3426 77.8735 52.6582L90.0962 57.7422L88.938 49.0918C88.4833 45.6964 92.2287 43.3378 95.0942 45.2148L101.693 49.5391L102.49 42.4756C102.874 39.0712 107.08 37.6933 109.404 40.2109L118.482 50.0469L121.005 40.9922ZM128.2 134.233C126.24 134.234 124.358 135.001 122.957 136.372C121.556 137.743 120.747 139.608 120.704 141.567C120.682 142.566 120.859 143.559 121.226 144.488C121.593 145.417 122.142 146.264 122.84 146.979C123.539 147.693 124.374 148.26 125.294 148.647C126.215 149.035 127.205 149.234 128.204 149.233C129.203 149.233 130.191 149.033 131.112 148.646C132.033 148.258 132.867 147.69 133.565 146.976C134.263 146.261 134.812 145.415 135.178 144.485C135.545 143.556 135.722 142.562 135.7 141.563C135.655 139.604 134.845 137.74 133.444 136.37C132.042 135 130.16 134.233 128.2 134.233ZM128.2 89.0635C113.95 89.0635 108.325 101.063 107.575 107.438L118.825 108.938C118.825 107.438 120.325 100.313 128.2 100.313C133.074 100.313 135.7 102.939 136.825 105.563C137.2 106.313 137.949 108.938 136.075 110.813C135.325 111.563 134.2 112.314 132.7 113.063C128.575 115.313 122.575 119.064 122.575 130.313H133.825C133.825 126.564 134.95 124.688 138.325 122.813C140.2 121.689 142.45 120.563 144.325 118.688C148.825 114.188 149.95 107.438 147.325 101.063C144.325 93.9387 136.825 89.0635 128.2 89.0635Z" fill="currentColor" />
</svg>
