<svg width="60" height="60" viewBox="0 0 60 60" fill="none" xmlns="http://www.w3.org/2000/svg">
<g clip-path="url(#clip0_375_395)">
<g filter="url(#filter0_d_375_395)">
<path d="M16.2546 12.7908C18.1754 10.6791 20.4683 11.8927 20.814 14.7082L21.6465 21.4875C22.6379 29.5607 29.9588 35.3963 38.1762 34.6636L47.3939 33.8418C49.1982 33.681 50.579 35.372 49.7567 36.963C48.6856 39.0352 47.264 40.923 45.5447 42.5415C42.9092 45.0225 39.6645 46.7857 36.129 47.658C32.5936 48.5303 28.8887 48.4817 25.378 47.5171C21.8673 46.5524 18.6712 44.7049 16.1035 42.1556C13.5358 39.6064 11.6846 36.4431 10.7316 32.976C9.77849 29.509 9.7563 25.8573 10.6671 22.3792C11.5779 18.9011 13.3905 15.7161 15.927 13.1367C16.0453 13.0163 16.1542 12.9011 16.2546 12.7908Z" fill="white" fill-opacity="0.4" shape-rendering="crispEdges"/>
<path d="M33.9726 16.053C34.1198 15.6609 34.6827 15.6609 34.8299 16.053L36.0195 19.2215C36.0657 19.3448 36.1644 19.442 36.2895 19.4876L39.5043 20.6601C39.9022 20.8052 39.9022 21.3598 39.5043 21.505L36.2895 22.6775C36.1644 22.7231 36.0657 22.8203 36.0195 22.9436L34.8299 26.112C34.6827 26.5042 34.1198 26.5042 33.9726 26.112L32.7831 22.9436C32.7368 22.8203 32.6381 22.7231 32.513 22.6775L29.2982 21.505C28.9003 21.3598 28.9003 20.8052 29.2982 20.6601L32.513 19.4876C32.6381 19.442 32.7368 19.3448 32.7831 19.2215L33.9726 16.053Z" fill="white" fill-opacity="0.4" shape-rendering="crispEdges"/>
<path d="M42.5712 12.0322C42.7185 11.64 43.2813 11.64 43.4285 12.0322L44.6181 15.2006C44.6644 15.3239 44.763 15.4211 44.8881 15.4668L48.1029 16.6393C48.5008 16.7844 48.5008 17.339 48.1029 17.4841L44.8881 18.6566C44.763 18.7022 44.6644 18.7995 44.6181 18.9227L43.4285 22.0912C43.2813 22.4834 42.7185 22.4834 42.5712 22.0912L41.3817 18.9227C41.3354 18.7995 41.2368 18.7022 41.1117 18.6566L37.8969 17.4841C37.499 17.339 37.499 16.7844 37.8969 16.6393L41.1117 15.4668C41.2368 15.4211 41.3354 15.3239 41.3817 15.2006L42.5712 12.0322Z" fill="white" fill-opacity="0.4" shape-rendering="crispEdges"/>
</g>
</g>
<defs>
<filter id="filter0_d_375_395" x="-5" y="-1.27832" width="70" height="66.5564" filterUnits="userSpaceOnUse" color-interpolation-filters="sRGB">
<feFlood flood-opacity="0" result="BackgroundImageFix"/>
<feColorMatrix in="SourceAlpha" type="matrix" values="0 0 0 0 0 0 0 0 0 0 0 0 0 0 0 0 0 0 127 0" result="hardAlpha"/>
<feOffset dy="2"/>
<feGaussianBlur stdDeviation="7.5"/>
<feComposite in2="hardAlpha" operator="out"/>
<feColorMatrix type="matrix" values="0 0 0 0 1 0 0 0 0 1 0 0 0 0 1 0 0 0 0.3 0"/>
<feBlend mode="normal" in2="BackgroundImageFix" result="effect1_dropShadow_375_395"/>
<feBlend mode="normal" in="SourceGraphic" in2="effect1_dropShadow_375_395" result="shape"/>
</filter>
<clipPath id="clip0_375_395">
<rect width="60" height="60" fill="white"/>
</clipPath>
</defs>
</svg>
