<svg width="40" height="41" viewBox="0 0 40 41" fill="none" xmlns="http://www.w3.org/2000/svg">
<g clip-path="url(#clip0_321_247)">
<path d="M0 5.5C0 6.82608 0.526784 8.09785 1.46447 9.03553C2.40215 9.97322 3.67392 10.5 5 10.5C6.32608 10.5 7.59785 9.97322 8.53553 9.03553C9.47322 8.09785 10 6.82608 10 5.5C10 4.17392 9.47322 2.90215 8.53553 1.96447C7.59785 1.02678 6.32608 0.5 5 0.5C3.67392 0.5 2.40215 1.02678 1.46447 1.96447C0.526784 2.90215 0 4.17392 0 5.5ZM15 35.5C15 36.8261 15.5268 38.0979 16.4645 39.0355C17.4021 39.9732 18.6739 40.5 20 40.5C21.3261 40.5 22.5979 39.9732 23.5355 39.0355C24.4732 38.0979 25 36.8261 25 35.5C25 34.1739 24.4732 32.9021 23.5355 31.9645C22.5979 31.0268 21.3261 30.5 20 30.5C18.6739 30.5 17.4021 31.0268 16.4645 31.9645C15.5268 32.9021 15 34.1739 15 35.5ZM15 20.5C15 21.8261 15.5268 23.0979 16.4645 24.0355C17.4021 24.9732 18.6739 25.5 20 25.5C21.3261 25.5 22.5979 24.9732 23.5355 24.0355C24.4732 23.0979 25 21.8261 25 20.5C25 19.1739 24.4732 17.9021 23.5355 16.9645C22.5979 16.0268 21.3261 15.5 20 15.5C18.6739 15.5 17.4021 16.0268 16.4645 16.9645C15.5268 17.9021 15 19.1739 15 20.5ZM15 5.5C15 6.82608 15.5268 8.09785 16.4645 9.03553C17.4021 9.97322 18.6739 10.5 20 10.5C21.3261 10.5 22.5979 9.97322 23.5355 9.03553C24.4732 8.09785 25 6.82608 25 5.5C25 4.17392 24.4732 2.90215 23.5355 1.96447C22.5979 1.02678 21.3261 0.5 20 0.5C18.6739 0.5 17.4021 1.02678 16.4645 1.96447C15.5268 2.90215 15 4.17392 15 5.5ZM30 5.5C30 6.82608 30.5268 8.09785 31.4645 9.03553C32.4021 9.97322 33.6739 10.5 35 10.5C36.3261 10.5 37.5979 9.97322 38.5355 9.03553C39.4732 8.09785 40 6.82608 40 5.5C40 4.17392 39.4732 2.90215 38.5355 1.96447C37.5979 1.02678 36.3261 0.5 35 0.5C33.6739 0.5 32.4021 1.02678 31.4645 1.96447C30.5268 2.90215 30 4.17392 30 5.5Z" fill="currentColor"/>
</g>
<defs>
<clipPath id="clip0_321_247">
<rect width="40" height="40" fill="currentColor" transform="translate(0 0.5)"/>
</clipPath>
</defs>
</svg>
